Archétype 1:2.ufo
<glyph name="exclam" format="1">
  <advance width="100"/>
  <unicode hex="0021"/>
  <outline>
    <contour>
      <point x="57" y="0" type="line"/>
      <point x="34" y="0" type="line"/>
      <point x="34" y="25" type="line"/>
      <point x="57" y="25" type="line"/>
    </contour>
    <contour>
      <point x="56" y="49" type="line"/>
      <point x="35" y="49" type="line"/>
      <point x="33" y="200" type="line"/>
      <point x="58" y="200" type="line"/>
    </contour>
  </outline>
</glyph>
<glyph name="parenleft" format="1">
  <advance width="100"/>
  <unicode hex="0028"/>
  <outline>
    <contour>
      <point x="70" y="17" type="line"/>
      <point x="55" y="17"/>
      <point x="50" y="27"/>
      <point x="50" y="100" type="curve"/>
      <point x="50" y="173"/>
      <point x="55" y="183"/>
      <point x="70" y="183" type="curve"/>
      <point x="70" y="203" type="line"/>
      <point x="40" y="203"/>
      <point x="30" y="187"/>
      <point x="30" y="100" type="curve"/>
      <point x="30" y="13"/>
      <point x="40" y="-3"/>
      <point x="70" y="-3" type="curve"/>
    </contour>
  </outline>
</glyph>
<glyph name="parenright" format="1">
  <advance width="100"/>
  <unicode hex="0029"/>
  <outline>
    <contour>
      <point x="30" y="183" type="line"/>
      <point x="45" y="183"/>
      <point x="50" y="173"/>
      <point x="50" y="100" type="curve"/>
      <point x="50" y="27"/>
      <point x="45" y="17"/>
      <point x="30" y="17" type="curve" smooth="yes"/>
      <point x="30" y="-3" type="line"/>
      <point x="60" y="-3"/>
      <point x="70" y="13"/>
      <point x="70" y="100" type="curve"/>
      <point x="70" y="187"/>
      <point x="60" y="203"/>
      <point x="30" y="203" type="curve" smooth="yes"/>
    </contour>
  </outline>
</glyph>
<glyph name="comma" format="1">
  <advance width="100"/>
  <unicode hex="002C"/>
  <outline>
    <contour>
      <point x="28" y="-50" type="line"/>
      <point x="59" y="-45"/>
      <point x="71" y="-23"/>
      <point x="71" y="0" type="curve"/>
      <point x="51" y="0" type="line"/>
      <point x="51" y="-18"/>
      <point x="45" y="-28"/>
      <point x="28" y="-34" type="curve"/>
    </contour>
    <contour>
      <point x="71" y="0" type="line"/>
      <point x="38" y="0" type="line"/>
      <point x="38" y="30" type="line"/>
      <point x="71" y="30" type="line"/>
    </contour>
  </outline>
</glyph>
<glyph name="zero" format="1">
  <advance width="100"/>
  <unicode hex="0030"/>
  <outline>
    <contour>
      <point x="51" y="-3" type="curve" smooth="yes"/>
      <point x="21" y="-3"/>
      <point x="11" y="13"/>
      <point x="11" y="100" type="curve"/>
      <point x="11" y="187"/>
      <point x="21" y="203"/>
      <point x="51" y="203" type="curve" smooth="yes"/>
      <point x="79" y="203"/>
      <point x="89" y="187"/>
      <point x="89" y="100" type="curve"/>
      <point x="89" y="13"/>
      <point x="79" y="-3"/>
    </contour>
    <contour>
      <point x="51" y="183" type="curve" smooth="yes"/>
      <point x="36" y="183"/>
      <point x="31" y="173"/>
      <point x="31" y="100" type="curve"/>
      <point x="31" y="27"/>
      <point x="36" y="17"/>
      <point x="51" y="17" type="curve" smooth="yes"/>
      <point x="65" y="17"/>
      <point x="69" y="28"/>
      <point x="69" y="100" type="curve"/>
      <point x="69" y="172"/>
      <point x="65" y="183"/>
    </contour>
    <contour>
      <point x="59" y="89" type="line"/>
      <point x="41" y="89" type="line"/>
      <point x="41" y="112" type="line"/>
      <point x="59" y="112" type="line"/>
    </contour>
  </outline>
</glyph>
<glyph name="one" format="1">
  <advance width="100"/>
  <unicode hex="0031"/>
  <outline>
    <contour>
      <point x="46" y="200" type="line"/>
      <point x="14" y="160" type="line"/>
      <point x="14" y="132" type="line"/>
      <point x="46" y="169" type="line"/>
      <point x="46" y="19" type="line"/>
      <point x="15" y="19" type="line"/>
      <point x="15" y="0" type="line"/>
      <point x="94" y="0" type="line"/>
      <point x="94" y="19" type="line"/>
      <point x="67" y="19" type="line"/>
      <point x="67" y="200" type="line"/>
    </contour>
  </outline>
</glyph>
<glyph name="two" format="1">
  <advance width="100"/>
  <unicode hex="0032"/>
  <outline>
    <contour>
      <point x="12" y="0" type="curve"/>
      <point x="90" y="0" type="line"/>
      <point x="90" y="20" type="line"/>
      <point x="34" y="20" type="line"/>
      <point x="39.3793103448" y="44.0"/>
      <point x="47" y="59"/>
      <point x="60" y="79" type="curve" smooth="yes"/>
      <point x="78" y="107"/>
      <point x="94.0" y="132.697368421"/>
      <point x="94" y="156" type="curve" smooth="yes"/>
      <point x="94" y="186"/>
      <point x="81.0" y="202.0"/>
      <point x="56" y="202" type="curve" smooth="yes"/>
      <point x="24.0" y="202.0"/>
      <point x="12.0" y="181.310344828"/>
      <point x="12" y="142" type="curve"/>
      <point x="32" y="144" type="line"/>
      <point x="32" y="165"/>
      <point x="36" y="182"/>
      <point x="56" y="182" type="curve" smooth="yes"/>
      <point x="69" y="182"/>
      <point x="74" y="171"/>
      <point x="74" y="154" type="curve" smooth="yes"/>
      <point x="74.0" y="138.75"/>
      <point x="56" y="110"/>
      <point x="45" y="93" type="curve" smooth="yes"/>
      <point x="36" y="79"/>
      <point x="12" y="41"/>
    </contour>
  </outline>
</glyph>
<glyph name="three" format="1">
  <advance width="100.0"/>
  <unicode hex="0033"/>
  <outline>
    <contour>
      <point x="49" y="-3" type="curve" smooth="yes"/>
      <point x="72.0" y="-3.0"/>
      <point x="88.0" y="12.7611940299"/>
      <point x="88" y="64" type="curve"/>
      <point x="88" y="79"/>
      <point x="81" y="96"/>
      <point x="70" y="105" type="curve"/>
      <point x="80" y="113"/>
      <point x="88" y="125"/>
      <point x="88" y="144" type="curve"/>
      <point x="88" y="189"/>
      <point x="73.0" y="203.0"/>
      <point x="49" y="203" type="curve" smooth="yes"/>
      <point x="28" y="203"/>
      <point x="17" y="194"/>
      <point x="12" y="152" type="curve"/>
      <point x="32" y="152" type="line"/>
      <point x="34" y="178"/>
      <point x="39.4117647059" y="183.0"/>
      <point x="50" y="183" type="curve" smooth="yes"/>
      <point x="60.3888888889" y="183.0"/>
      <point x="67.0" y="173.0"/>
      <point x="67" y="149" type="curve"/>
      <point x="67.0" y="128.0"/>
      <point x="58.0" y="115.0"/>
      <point x="44" y="115" type="curve"/>
      <point x="44" y="94" type="line" smooth="yes"/>
      <point x="57" y="94"/>
      <point x="67" y="83"/>
      <point x="68" y="62" type="curve"/>
      <point x="66.1052631579" y="23.5853658537"/>
      <point x="61" y="17"/>
      <point x="50" y="17" type="curve" smooth="yes"/>
      <point x="38" y="17"/>
      <point x="33" y="27"/>
      <point x="31" y="60" type="curve"/>
      <point x="11" y="60" type="line"/>
      <point x="13" y="8"/>
      <point x="26.0" y="-3.0"/>
    </contour>
  </outline>
</glyph>
<glyph name="four" format="1">
  <advance width="100"/>
  <unicode hex="0034"/>
  <outline>
    <contour>
      <point x="78" y="0" type="line"/>
      <point x="78" y="50" type="line"/>
      <point x="91" y="50" type="line"/>
      <point x="91" y="70" type="line"/>
      <point x="78" y="70" type="line"/>
      <point x="78" y="200" type="line"/>
      <point x="56" y="200" type="line"/>
      <point x="9" y="70" type="line"/>
      <point x="9" y="50" type="line"/>
      <point x="57" y="50" type="line"/>
      <point x="57" y="0" type="line"/>
    </contour>
    <contour>
      <point x="52" y="139" type="line" smooth="yes"/>
      <point x="55" y="147"/>
      <point x="56" y="150"/>
      <point x="57" y="156" type="curve"/>
      <point x="60" y="156" type="line"/>
      <point x="59" y="149"/>
      <point x="58" y="141"/>
      <point x="58" y="129" type="curve" name="_p_cornerRadius:9.0"/>
      <point x="58" y="70" type="line"/>
      <point x="30" y="70" type="line"/>
    </contour>
  </outline>
</glyph>
<glyph name="five" format="1">
  <advance width="100"/>
  <unicode hex="0035"/>
  <outline>
    <contour>
      <point x="55" y="130" type="curve"/>
      <point x="47.1739130435" y="130.0"/>
      <point x="41.3636363636" y="128.0"/>
      <point x="35" y="123" type="curve"/>
      <point x="36" y="180" type="line"/>
      <point x="83" y="180" type="line"/>
      <point x="83" y="200" type="line"/>
      <point x="16" y="200" type="line"/>
      <point x="15" y="98" type="line"/>
      <point x="32" y="98" type="line"/>
      <point x="36.8" y="106.0"/>
      <point x="42.2857142857" y="110.0"/>
      <point x="50" y="110" type="curve"/>
      <point x="61.4285714286" y="110.0"/>
      <point x="66.0" y="99.0"/>
      <point x="66" y="71" type="curve"/>
      <point x="66.0" y="33.0"/>
      <point x="61.0" y="17.0"/>
      <point x="49" y="17" type="curve" smooth="yes"/>
      <point x="34.72" y="17.0"/>
      <point x="29.8260869565" y="30.0"/>
      <point x="28" y="60" type="curve"/>
      <point x="8" y="60" type="line"/>
      <point x="11.8139534884" y="15.0"/>
      <point x="23.4888888889" y="-3.0"/>
      <point x="49" y="-3" type="curve" smooth="yes"/>
      <point x="75.0" y="-3.0"/>
      <point x="86.0" y="19.0"/>
      <point x="86" y="71" type="curve"/>
      <point x="85.0606060606" y="113.0"/>
      <point x="76.3125" y="130.0"/>
    </contour>
  </outline>
</glyph>
<glyph name="six" format="1">
  <advance width="100.0"/>
  <unicode hex="0036"/>
  <outline>
    <contour>
      <point x="51" y="17" type="curve" smooth="yes"/>
      <point x="37.35" y="17.0"/>
      <point x="30" y="30"/>
      <point x="30" y="65" type="curve" smooth="yes"/>
      <point x="30" y="97"/>
      <point x="39" y="108"/>
      <point x="51" y="108" type="curve" smooth="yes"/>
      <point x="63" y="108"/>
      <point x="69" y="97"/>
      <point x="69" y="62" type="curve" smooth="yes"/>
      <point x="69" y="27"/>
      <point x="62.0" y="17.0"/>
    </contour>
    <contour>
      <point x="51" y="-3" type="curve" smooth="yes"/>
      <point x="77.5891195657" y="-3.0"/>
      <point x="89" y="20"/>
      <point x="89" y="62" type="curve" smooth="yes"/>
      <point x="89" y="112"/>
      <point x="74" y="128"/>
      <point x="53" y="128" type="curve" smooth="yes"/>
      <point x="41.9473684211" y="128.0"/>
      <point x="34.1" y="123.0"/>
      <point x="32" y="114" type="curve"/>
      <point x="30" y="114" type="line"/>
      <point x="30" y="166"/>
      <point x="36" y="183"/>
      <point x="50" y="183" type="curve" smooth="yes"/>
      <point x="60.5882352941" y="183.0"/>
      <point x="65.8823529412" y="178.0"/>
      <point x="68" y="152" type="curve"/>
      <point x="88" y="152" type="line"/>
      <point x="83" y="194"/>
      <point x="72.0" y="203.0"/>
      <point x="51" y="203" type="curve" smooth="yes"/>
      <point x="22.0" y="203.0"/>
      <point x="11.0" y="186.183673469"/>
      <point x="11" y="100" type="curve" smooth="yes"/>
      <point x="11.0" y="15.1203703704"/>
      <point x="19.981803459" y="-3.0"/>
    </contour>
  </outline>
</glyph>
<glyph name="seven" format="1">
  <advance width="100"/>
  <unicode hex="0037"/>
  <outline>
    <contour>
      <point x="68" y="111" type="curve" smooth="yes"/>
      <point x="79.0" y="135.264705882"/>
      <point x="90.0" y="168.264705882"/>
      <point x="90" y="177" type="curve"/>
      <point x="90" y="200" type="line"/>
      <point x="10" y="200" type="line"/>
      <point x="10" y="180" type="line"/>
      <point x="70" y="180" type="line"/>
      <point x="70.9166666667" y="174.0"/>
      <point x="59.9166666667" y="143.0"/>
      <point x="48" y="117" type="curve" smooth="yes"/>
      <point x="37.0" y="93.0"/>
      <point x="26.0" y="35.0"/>
      <point x="26" y="0" type="curve"/>
      <point x="48" y="0" type="line"/>
      <point x="48.0" y="32.5871559633"/>
      <point x="58.0" y="88.5963302752"/>
    </contour>
  </outline>
</glyph>
<glyph name="eight" format="1">
  <advance width="100"/>
  <unicode hex="0038"/>
  <outline>
    <contour>
      <point x="50" y="120" type="curve"/>
      <point x="39.0" y="120.0"/>
      <point x="32.0" y="132.1"/>
      <point x="32" y="153" type="curve" smooth="yes"/>
      <point x="32.0" y="171.75"/>
      <point x="39.0" y="183.0"/>
      <point x="50" y="183" type="curve" smooth="yes"/>
      <point x="61.0" y="183.0"/>
      <point x="68.0" y="171.75"/>
      <point x="68" y="153" type="curve" smooth="yes"/>
      <point x="68.0" y="132.1"/>
      <point x="61.0" y="120.0"/>
    </contour>
    <contour>
      <point x="50" y="17" type="curve"/>
      <point x="33.0" y="17.0"/>
      <point x="31.0" y="36.2368421053"/>
      <point x="31" y="60" type="curve" smooth="yes"/>
      <point x="31.0" y="87.4772727273"/>
      <point x="37.0" y="99.0"/>
      <point x="50" y="99" type="curve" smooth="yes"/>
      <point x="63.0" y="99.0"/>
      <point x="69.0" y="87.4772727273"/>
      <point x="69" y="60" type="curve" smooth="yes"/>
      <point x="69.0" y="36.2368421053"/>
      <point x="67.0" y="17.0"/>
    </contour>
    <contour>
      <point x="50" y="-3" type="curve" smooth="yes"/>
      <point x="79.0" y="-3.0"/>
      <point x="89" y="17"/>
      <point x="89" y="60" type="curve" smooth="yes"/>
      <point x="89" y="92"/>
      <point x="84.0" y="97.5"/>
      <point x="71" y="110" type="curve"/>
      <point x="82.0" y="118.608695652"/>
      <point x="88.0" y="134.682926829"/>
      <point x="88" y="154" type="curve" smooth="yes"/>
      <point x="88.0" y="189.549019608"/>
      <point x="72.0" y="203.0"/>
      <point x="50" y="203" type="curve"/>
      <point x="28.0" y="203.0"/>
      <point x="12.0" y="189.549019608"/>
      <point x="12" y="154" type="curve" smooth="yes"/>
      <point x="12.0" y="134.682926829"/>
      <point x="18.0" y="118.608695652"/>
      <point x="29" y="110" type="curve"/>
      <point x="16.0" y="97.5"/>
      <point x="11" y="92"/>
      <point x="11" y="60" type="curve" smooth="yes"/>
      <point x="11" y="17"/>
      <point x="21.0" y="-3.0"/>
    </contour>
  </outline>
</glyph>
<glyph name="nine" format="1">
  <advance width="100.0"/>
  <unicode hex="0039"/>
  <outline>
    <contour>
      <point x="49" y="183" type="curve" smooth="yes"/>
      <point x="63" y="183"/>
      <point x="70" y="170"/>
      <point x="70" y="135" type="curve" smooth="yes"/>
      <point x="70.0" y="105.976744186"/>
      <point x="61.0" y="96.0"/>
      <point x="49" y="96" type="curve" smooth="yes"/>
      <point x="37.0" y="96.0"/>
      <point x="31.0" y="106.043478261"/>
      <point x="31" y="138" type="curve" smooth="yes"/>
      <point x="31" y="173"/>
      <point x="38" y="183"/>
    </contour>
    <contour>
      <point x="49" y="203" type="curve" smooth="yes"/>
      <point x="22" y="203"/>
      <point x="11" y="180"/>
      <point x="11" y="138" type="curve" smooth="yes"/>
      <point x="11.0" y="91.0303030303"/>
      <point x="26.0" y="76.0"/>
      <point x="47" y="76" type="curve" smooth="yes"/>
      <point x="58" y="76"/>
      <point x="66" y="81"/>
      <point x="68" y="90" type="curve"/>
      <point x="70" y="90" type="line"/>
      <point x="70.0" y="34.9855072464"/>
      <point x="64.0" y="17.0"/>
      <point x="50" y="17" type="curve" smooth="yes"/>
      <point x="39" y="17"/>
      <point x="34" y="22"/>
      <point x="32" y="48" type="curve"/>
      <point x="12" y="48" type="line"/>
      <point x="17" y="6"/>
      <point x="28" y="-3"/>
      <point x="49" y="-3" type="curve" smooth="yes"/>
      <point x="78" y="-3"/>
      <point x="89" y="14"/>
      <point x="89" y="100" type="curve" smooth="yes"/>
      <point x="89" y="185"/>
      <point x="80" y="203"/>
    </contour>
  </outline>
</glyph>
<glyph name="question" format="1">
  <advance width="100"/>
  <unicode hex="003F"/>
  <outline>
    <contour>
      <point x="33" y="45" type="move" smooth="yes"/>
      <point x="33.0" y="79.4657534247"/>
      <point x="36.1428571429" y="100.753424658"/>
      <point x="55" y="119" type="curve" smooth="yes"/>
      <point x="67.35" y="131.648648649"/>
      <point x="74.0" y="143.324324324"/>
      <point x="74" y="155" type="curve"/>
      <point x="74.0" y="173.0"/>
      <point x="67.0" y="183.0"/>
      <point x="51" y="183" type="curve" smooth="yes"/>
      <point x="36.2307692308" y="183.0"/>
      <point x="27.0" y="172.0"/>
      <point x="27" y="144" type="curve"/>
      <point x="6" y="144" type="line"/>
      <point x="6.0" y="186.0"/>
      <point x="22.2765957447" y="203.0"/>
      <point x="51" y="203" type="curve" smooth="yes"/>
      <point x="81.0" y="203.0"/>
      <point x="94" y="189"/>
      <point x="94" y="155" type="curve" smooth="yes"/>
      <point x="94" y="133"/>
      <point x="81" y="117"/>
      <point x="67" y="100" type="curve" smooth="yes"/>
      <point x="57" y="88"/>
      <point x="54.0" y="75.0"/>
      <point x="54" y="45" type="curve"/>
      <point x="54" y="45"/>
    </contour>
    <contour>
      <point x="55" y="0" type="line"/>
      <point x="32" y="0" type="line"/>
      <point x="32" y="24" type="line"/>
      <point x="55" y="24" type="line"/>
    </contour>
  </outline>
</glyph>
<glyph name="A" format="1">
  <advance width="100"/>
  <unicode hex="0041"/>
  <outline>
    <contour>
      <point x="67" y="60" type="line"/>
      <point x="34" y="60" type="line"/>
      <point x="45" y="127" type="line"/>
      <point x="46" y="137"/>
      <point x="47" y="148"/>
      <point x="47" y="154" type="curve"/>
      <point x="53" y="154" type="line"/>
      <point x="53" y="148"/>
      <point x="54" y="137"/>
      <point x="55" y="127" type="curve"/>
    </contour>
    <contour>
      <point x="78" y="0" type="line"/>
      <point x="98" y="0" type="line"/>
      <point x="61" y="200" type="line"/>
      <point x="41" y="200" type="line"/>
      <point x="2" y="0" type="line"/>
      <point x="22" y="0" type="line"/>
      <point x="30" y="40" type="line"/>
      <point x="71" y="40" type="line"/>
    </contour>
  </outline>
</glyph>
<glyph name="B" format="1">
  <advance width="100"/>
  <unicode hex="0042"/>
  <outline>
    <contour>
      <point x="12" y="0" type="line"/>
      <point x="44" y="0" type="line" smooth="yes"/>
      <point x="69" y="0"/>
      <point x="88" y="16"/>
      <point x="88" y="55" type="curve" smooth="yes"/>
      <point x="88" y="75"/>
      <point x="81" y="92"/>
      <point x="70" y="101" type="curve"/>
      <point x="81" y="110"/>
      <point x="87" y="126"/>
      <point x="87" y="146" type="curve" smooth="yes"/>
      <point x="87" y="185"/>
      <point x="69" y="200"/>
      <point x="44" y="200" type="curve" smooth="yes"/>
      <point x="12" y="200" type="line"/>
    </contour>
    <contour>
      <point x="32" y="111" type="line"/>
      <point x="32" y="180" type="line"/>
      <point x="44" y="180" type="line" smooth="yes"/>
      <point x="58" y="180"/>
      <point x="67" y="167"/>
      <point x="67" y="145" type="curve" smooth="yes"/>
      <point x="67" y="124"/>
      <point x="58" y="111"/>
      <point x="44" y="111" type="curve"/>
    </contour>
    <contour>
      <point x="32" y="20" type="line"/>
      <point x="32" y="90" type="line"/>
      <point x="44" y="90" type="line" smooth="yes"/>
      <point x="58" y="90"/>
      <point x="68" y="77"/>
      <point x="68" y="55" type="curve" smooth="yes"/>
      <point x="68" y="33"/>
      <point x="58" y="20"/>
      <point x="44" y="20" type="curve" smooth="yes"/>
    </contour>
  </outline>
</glyph>
<glyph name="C" format="1">
  <advance width="100.0"/>
  <unicode hex="0043"/>
  <outline>
    <contour>
      <point x="70" y="48" type="line"/>
      <point x="70" y="31"/>
      <point x="65" y="18"/>
      <point x="50" y="18" type="curve" smooth="yes"/>
      <point x="35" y="18"/>
      <point x="30" y="31"/>
      <point x="30" y="48" type="curve" smooth="yes"/>
      <point x="30" y="152" type="line" smooth="yes"/>
      <point x="30" y="169"/>
      <point x="35" y="182"/>
      <point x="50" y="182" type="curve" smooth="yes"/>
      <point x="65" y="182"/>
      <point x="70" y="169"/>
      <point x="70" y="152" type="curve"/>
      <point x="70" y="140" type="line"/>
      <point x="90" y="140" type="line"/>
      <point x="90" y="152" type="line"/>
      <point x="90" y="182"/>
      <point x="78" y="202"/>
      <point x="50" y="202" type="curve" smooth="yes"/>
      <point x="22" y="202"/>
      <point x="10" y="182"/>
      <point x="10" y="152" type="curve" smooth="yes"/>
      <point x="10" y="48" type="line" smooth="yes"/>
      <point x="10" y="18"/>
      <point x="22" y="-2"/>
      <point x="50" y="-2" type="curve" smooth="yes"/>
      <point x="78" y="-2"/>
      <point x="90" y="18"/>
      <point x="90" y="48" type="curve"/>
      <point x="90" y="60" type="line"/>
      <point x="70" y="60" type="line"/>
    </contour>
  </outline>
</glyph>
<glyph name="D" format="1">
  <advance width="100"/>
  <unicode hex="0044"/>
  <outline>
    <contour>
      <point x="16" y="0" type="line"/>
      <point x="43" y="0" type="line"/>
      <point x="76" y="0"/>
      <point x="88" y="19"/>
      <point x="88" y="100" type="curve"/>
      <point x="88" y="183"/>
      <point x="78" y="199"/>
      <point x="45" y="199" type="curve"/>
      <point x="16" y="199" type="line"/>
    </contour>
    <contour>
      <point x="36" y="20" type="line"/>
      <point x="36" y="179" type="line"/>
      <point x="45" y="179" type="line"/>
      <point x="65" y="179"/>
      <point x="68" y="165"/>
      <point x="68" y="100" type="curve"/>
      <point x="68" y="35"/>
      <point x="65" y="20"/>
      <point x="43" y="20" type="curve"/>
    </contour>
  </outline>
</glyph>
<glyph name="E" format="1">
  <advance width="100"/>
  <unicode hex="0045"/>
  <outline>
    <contour>
      <point x="16" y="0" type="line"/>
      <point x="84" y="0" type="line"/>
      <point x="84" y="20" type="line"/>
      <point x="36" y="20" type="line"/>
      <point x="36" y="91" type="line"/>
      <point x="70" y="91" type="line"/>
      <point x="70" y="111" type="line"/>
      <point x="36" y="111" type="line"/>
      <point x="36" y="180" type="line"/>
      <point x="84" y="180" type="line"/>
      <point x="84" y="200" type="line"/>
      <point x="16" y="200" type="line"/>
    </contour>
  </outline>
</glyph>
<glyph name="F" format="1">
  <advance width="100"/>
  <unicode hex="0046"/>
  <outline>
    <contour>
      <point x="20" y="0" type="line"/>
      <point x="40" y="0" type="line"/>
      <point x="40" y="89" type="line"/>
      <point x="75" y="89" type="line"/>
      <point x="75" y="110" type="line"/>
      <point x="40" y="110" type="line"/>
      <point x="40" y="178" type="line"/>
      <point x="91" y="178" type="line"/>
      <point x="91" y="199" type="line"/>
      <point x="20" y="199" type="line"/>
    </contour>
  </outline>
</glyph>
<glyph name="G" format="1">
  <advance width="100"/>
  <unicode hex="0047"/>
  <outline>
    <contour>
      <point x="89" y="80" type="line"/>
      <point x="89" y="101" type="line"/>
      <point x="50" y="101" type="line"/>
      <point x="50" y="80" type="line"/>
    </contour>
    <contour>
      <point x="89" y="80" type="line"/>
      <point x="88" y="18"/>
      <point x="75" y="-2"/>
      <point x="51" y="-2" type="curve" smooth="yes"/>
      <point x="22" y="-2"/>
      <point x="11.0" y="14.0"/>
      <point x="11.0" y="100.0" type="curve"/>
      <point x="11.0" y="186.0"/>
      <point x="22" y="202"/>
      <point x="51" y="202" type="curve" smooth="yes"/>
      <point x="71" y="202"/>
      <point x="81" y="194"/>
      <point x="86" y="157" type="curve"/>
      <point x="67" y="153" type="line"/>
      <point x="65" y="177"/>
      <point x="61" y="182"/>
      <point x="51" y="182" type="curve" smooth="yes"/>
      <point x="36" y="182"/>
      <point x="31.0" y="172.0"/>
      <point x="31.0" y="100.0" type="curve"/>
      <point x="31.0" y="28.0"/>
      <point x="36" y="18"/>
      <point x="51" y="18" type="curve" smooth="yes"/>
      <point x="63" y="18"/>
      <point x="70" y="39"/>
      <point x="70" y="80" type="curve"/>
    </contour>
  </outline>
</glyph>
<glyph name="H" format="1">
  <advance width="100"/>
  <unicode hex="0048"/>
  <outline>
    <contour>
      <point x="13" y="0" type="line"/>
      <point x="34" y="0" type="line"/>
      <point x="34" y="89" type="line"/>
      <point x="66" y="89" type="line"/>
      <point x="66" y="0" type="line"/>
      <point x="87" y="0" type="line"/>
      <point x="87" y="200" type="line"/>
      <point x="66" y="200" type="line"/>
      <point x="66" y="110" type="line"/>
      <point x="34" y="110" type="line"/>
      <point x="34" y="200" type="line"/>
      <point x="13" y="200" type="line"/>
    </contour>
  </outline>
</glyph>
<glyph name="I" format="1">
  <advance width="100"/>
  <unicode hex="0049"/>
  <outline>
    <contour>
      <point x="15" y="0" type="line"/>
      <point x="85" y="0" type="line"/>
      <point x="85" y="19" type="line"/>
      <point x="60" y="19" type="line"/>
      <point x="60" y="180" type="line"/>
      <point x="85" y="180" type="line"/>
      <point x="85" y="200" type="line"/>
      <point x="15" y="200" type="line"/>
      <point x="15" y="180" type="line"/>
      <point x="40" y="180" type="line"/>
      <point x="40" y="19" type="line"/>
      <point x="15" y="19" type="line"/>
    </contour>
  </outline>
</glyph>
<glyph name="J" format="1">
  <advance width="100"/>
  <unicode hex="004A"/>
  <outline>
    <contour>
      <point x="32" y="200" type="line"/>
      <point x="32" y="179" type="line"/>
      <point x="69" y="179" type="line"/>
      <point x="69" y="65" type="line"/>
      <point x="69" y="40"/>
      <point x="65" y="20"/>
      <point x="50" y="20" type="curve" smooth="yes"/>
      <point x="36" y="20"/>
      <point x="30" y="34"/>
      <point x="29" y="63" type="curve"/>
      <point x="11" y="63" type="line"/>
      <point x="11" y="17"/>
      <point x="24" y="0"/>
      <point x="50" y="0" type="curve" smooth="yes"/>
      <point x="76" y="0"/>
      <point x="89" y="24"/>
      <point x="89" y="65" type="curve"/>
      <point x="89" y="200" type="line"/>
    </contour>
  </outline>
</glyph>
<glyph name="K" format="1">
  <advance width="100"/>
  <unicode hex="004B"/>
  <outline>
    <contour>
      <point x="30" y="0" type="line"/>
      <point x="10" y="0" type="line"/>
      <point x="10" y="200" type="line"/>
      <point x="30" y="200" type="line"/>
    </contour>
    <contour>
      <point x="18" y="93" type="line"/>
      <point x="76" y="200" type="line"/>
      <point x="99" y="200" type="line"/>
      <point x="34" y="81" type="line"/>
    </contour>
    <contour>
      <point x="99" y="0" type="line"/>
      <point x="76" y="0" type="line"/>
      <point x="18" y="105" type="line"/>
      <point x="34" y="117" type="line"/>
    </contour>
  </outline>
</glyph>
<glyph name="M" format="1">
  <advance width="100"/>
  <unicode hex="004D"/>
  <outline>
    <contour>
      <point x="25" y="0" type="line"/>
      <point x="5" y="0" type="line"/>
      <point x="5" y="200" type="line"/>
      <point x="25" y="200" type="line"/>
    </contour>
    <contour>
      <point x="40" y="40" type="line"/>
      <point x="5" y="200" type="line"/>
      <point x="25" y="200" type="line"/>
      <point x="59" y="40" type="line"/>
    </contour>
    <contour>
      <point x="94" y="0" type="line"/>
      <point x="74" y="0" type="line"/>
      <point x="74" y="200" type="line"/>
      <point x="94" y="200" type="line"/>
    </contour>
    <contour>
      <point x="59" y="40" type="line"/>
      <point x="40" y="40" type="line"/>
      <point x="75" y="200" type="line"/>
      <point x="94" y="200" type="line"/>
    </contour>
  </outline>
</glyph>
<glyph name="N" format="1">
  <advance width="100"/>
  <unicode hex="004E"/>
  <outline>
    <contour>
      <point x="36" y="0" type="line"/>
      <point x="35" y="109" type="line"/>
      <point x="40" y="109" type="line"/>
      <point x="64" y="0" type="line"/>
      <point x="84" y="0" type="line"/>
      <point x="84" y="199" type="line"/>
      <point x="64" y="199" type="line"/>
      <point x="65" y="92" type="line"/>
      <point x="60" y="92" type="line"/>
      <point x="36" y="199" type="line"/>
      <point x="16" y="199" type="line"/>
      <point x="16" y="0" type="line"/>
    </contour>
  </outline>
</glyph>
<glyph name="O" format="1">
  <advance width="100"/>
  <unicode hex="004F"/>
  <outline>
    <contour>
      <point x="48" y="-2" type="curve" smooth="yes"/>
      <point x="19" y="-2"/>
      <point x="7" y="18"/>
      <point x="7" y="48" type="curve" smooth="yes"/>
      <point x="7" y="152" type="line" smooth="yes"/>
      <point x="7" y="182"/>
      <point x="19" y="202"/>
      <point x="48" y="202" type="curve" smooth="yes"/>
      <point x="76" y="202"/>
      <point x="88" y="182"/>
      <point x="88" y="152" type="curve" smooth="yes"/>
      <point x="88" y="48" type="line" smooth="yes"/>
      <point x="88" y="18"/>
      <point x="76" y="-2"/>
    </contour>
    <contour>
      <point x="48" y="182" type="curve" smooth="yes"/>
      <point x="32" y="182"/>
      <point x="27" y="170"/>
      <point x="27" y="152" type="curve" smooth="yes"/>
      <point x="27" y="48" type="line" smooth="yes"/>
      <point x="27" y="30"/>
      <point x="32" y="18"/>
      <point x="48" y="18" type="curve" smooth="yes"/>
      <point x="64" y="18"/>
      <point x="68" y="31"/>
      <point x="68" y="48" type="curve" smooth="yes"/>
      <point x="68" y="152" type="line" smooth="yes"/>
      <point x="68" y="169"/>
      <point x="64" y="182"/>
    </contour>
  </outline>
</glyph>
<glyph name="P" format="1">
  <advance width="100"/>
  <unicode hex="0050"/>
  <outline>
    <contour>
      <point x="18" y="0" type="line"/>
      <point x="38" y="0" type="line"/>
      <point x="38" y="79" type="line"/>
      <point x="53" y="79" type="line" smooth="yes"/>
      <point x="80" y="79"/>
      <point x="92" y="102"/>
      <point x="92" y="141" type="curve" smooth="yes"/>
      <point x="92" y="178"/>
      <point x="79" y="200"/>
      <point x="53" y="200" type="curve" smooth="yes"/>
      <point x="18" y="200" type="line"/>
    </contour>
    <contour>
      <point x="53" y="180" type="line" smooth="yes"/>
      <point x="65" y="180"/>
      <point x="72" y="165"/>
      <point x="72" y="141" type="curve" smooth="yes"/>
      <point x="72" y="114"/>
      <point x="65" y="99"/>
      <point x="53" y="99" type="curve" smooth="yes"/>
      <point x="38" y="99" type="line"/>
      <point x="38" y="180" type="line"/>
    </contour>
  </outline>
</glyph>
<glyph name="Q" format="1">
  <advance width="100"/>
  <unicode hex="0051"/>
  <outline>
    <contour>
      <point x="100" y="-2" type="line"/>
      <point x="100" y="18" type="line"/>
      <point x="50" y="18" type="line"/>
      <point x="50" y="-2" type="line"/>
    </contour>
    <contour>
      <point x="89" y="100" type="curve"/>
      <point x="89" y="186"/>
      <point x="79" y="202"/>
      <point x="51" y="202" type="curve" smooth="yes"/>
      <point x="21" y="202"/>
      <point x="11" y="186"/>
      <point x="11" y="100" type="curve"/>
      <point x="11" y="14"/>
      <point x="21" y="-2"/>
      <point x="51" y="-2" type="curve" smooth="yes"/>
      <point x="79" y="-2"/>
      <point x="89" y="14"/>
    </contour>
    <contour>
      <point x="69" y="100" type="curve"/>
      <point x="69" y="29"/>
      <point x="65" y="18"/>
      <point x="51" y="18" type="curve" smooth="yes"/>
      <point x="36" y="18"/>
      <point x="31" y="28"/>
      <point x="31" y="100" type="curve"/>
      <point x="31" y="172"/>
      <point x="36" y="182"/>
      <point x="51" y="182" type="curve" smooth="yes"/>
      <point x="65" y="182"/>
      <point x="69" y="171"/>
    </contour>
  </outline>
</glyph>
<glyph name="R" format="1">
  <advance width="100"/>
  <unicode hex="0052"/>
  <outline>
    <contour>
      <point x="30" y="0" type="line"/>
      <point x="10" y="0" type="line"/>
      <point x="10" y="200" type="line"/>
      <point x="30" y="200" type="line"/>
    </contour>
    <contour>
      <point x="45" y="80" type="curve" smooth="yes"/>
      <point x="20" y="80" type="line"/>
      <point x="20" y="100" type="line"/>
      <point x="45" y="100" type="line" smooth="yes"/>
      <point x="66" y="100"/>
      <point x="74" y="117"/>
      <point x="74" y="140" type="curve" smooth="yes"/>
      <point x="74" y="163"/>
      <point x="66" y="180"/>
      <point x="45" y="180" type="curve" smooth="yes"/>
      <point x="20" y="180" type="line"/>
      <point x="20" y="200" type="line"/>
      <point x="45" y="200" type="line" smooth="yes"/>
      <point x="78" y="200"/>
      <point x="94" y="176"/>
      <point x="94" y="140" type="curve" smooth="yes"/>
      <point x="94" y="104"/>
      <point x="78" y="80"/>
    </contour>
    <contour>
      <point x="79" y="0" type="line"/>
      <point x="38" y="99" type="line"/>
      <point x="60" y="99" type="line"/>
      <point x="100" y="0" type="line"/>
    </contour>
  </outline>
</glyph>
<glyph name="S" format="1">
  <advance width="100"/>
  <unicode hex="0053"/>
  <outline>
    <contour>
      <point x="10" y="50" type="line"/>
      <point x="10" y="19"/>
      <point x="22" y="-2"/>
      <point x="50" y="-2" type="curve" smooth="yes"/>
      <point x="77" y="-2"/>
      <point x="89" y="18"/>
      <point x="89" y="48" type="curve" smooth="yes"/>
      <point x="89" y="76"/>
      <point x="79" y="93"/>
      <point x="55" y="108" type="curve" smooth="yes"/>
      <point x="39" y="121"/>
      <point x="30" y="132"/>
      <point x="30" y="152" type="curve" smooth="yes"/>
      <point x="30" y="169"/>
      <point x="35" y="182"/>
      <point x="50" y="182" type="curve" smooth="yes"/>
      <point x="69" y="182"/>
      <point x="69" y="163"/>
      <point x="69" y="140" type="curve"/>
      <point x="89" y="140" type="line"/>
      <point x="89" y="150" type="line"/>
      <point x="89" y="180"/>
      <point x="78" y="202"/>
      <point x="50" y="202" type="curve" smooth="yes"/>
      <point x="22" y="202"/>
      <point x="10" y="182"/>
      <point x="10" y="152" type="curve" smooth="yes"/>
      <point x="10" y="124"/>
      <point x="20" y="107"/>
      <point x="44" y="91" type="curve" smooth="yes"/>
      <point x="60" y="79"/>
      <point x="69" y="68"/>
      <point x="69" y="48" type="curve" smooth="yes"/>
      <point x="69" y="31"/>
      <point x="65" y="18"/>
      <point x="50" y="18" type="curve" smooth="yes"/>
      <point x="30" y="18"/>
      <point x="30" y="37"/>
      <point x="30" y="60" type="curve"/>
      <point x="10" y="60" type="line"/>
    </contour>
  </outline>
</glyph>
<glyph name="U" format="1">
  <advance width="100"/>
  <unicode hex="0055"/>
  <outline>
    <contour>
      <point x="88" y="200" type="line"/>
      <point x="68" y="200" type="line"/>
      <point x="68" y="47" type="line" smooth="yes"/>
      <point x="68.0" y="33.0"/>
      <point x="62.3157894737" y="18.0"/>
      <point x="50" y="18" type="curve" smooth="yes"/>
      <point x="38.3" y="18.0"/>
      <point x="32.0" y="32.0"/>
      <point x="32" y="47" type="curve" smooth="yes"/>
      <point x="32" y="200" type="line"/>
      <point x="12" y="200" type="line"/>
      <point x="12" y="47" type="line" smooth="yes"/>
      <point x="12.0" y="21.0"/>
      <point x="27.2" y="-2.0"/>
      <point x="50" y="-2" type="curve" smooth="yes"/>
      <point x="73.3846153846" y="-2.0"/>
      <point x="88" y="20"/>
      <point x="88" y="47" type="curve" smooth="yes"/>
    </contour>
  </outline>
</glyph>
<glyph name="W" format="1">
  <advance width="100"/>
  <unicode hex="0057"/>
  <outline>
    <contour>
      <point x="38" y="0" type="line"/>
      <point x="45" y="41" type="line" smooth="yes"/>
      <point x="47.0474148369" y="52.9920011877"/>
      <point x="48" y="59"/>
      <point x="48" y="70" type="curve"/>
      <point x="52" y="70" type="line"/>
      <point x="52" y="59"/>
      <point x="52.9525851631" y="52.9920011877"/>
      <point x="55" y="41" type="curve" smooth="yes"/>
      <point x="62" y="0" type="line"/>
      <point x="80" y="0" type="line"/>
      <point x="90" y="199" type="line"/>
      <point x="71" y="199" type="line"/>
      <point x="67" y="100" type="line" smooth="yes"/>
      <point x="66.5155467856" y="88.0097829426"/>
      <point x="67" y="83"/>
      <point x="68" y="71" type="curve"/>
      <point x="64" y="71" type="line"/>
      <point x="63" y="78"/>
      <point x="63.528155789" y="90.0669873712"/>
      <point x="62" y="100" type="curve" smooth="yes"/>
      <point x="56" y="139" type="line"/>
      <point x="44" y="139" type="line"/>
      <point x="39" y="100" type="line" smooth="yes"/>
      <point x="37.9747685081" y="92.0031943635"/>
      <point x="38" y="83"/>
      <point x="37" y="71" type="curve"/>
      <point x="33" y="71" type="line"/>
      <point x="34" y="83"/>
      <point x="34.605289124" y="88.0152753442"/>
      <point x="34" y="100" type="curve" smooth="yes"/>
      <point x="29" y="199" type="line"/>
      <point x="10" y="199" type="line"/>
      <point x="19" y="0" type="line"/>
    </contour>
  </outline>
</glyph>
<glyph name="X" format="1">
  <advance width="100"/>
  <unicode hex="0058"/>
  <outline>
    <contour>
      <point x="68" y="0" type="line"/>
      <point x="89" y="0" type="line"/>
      <point x="55" y="99" type="line"/>
      <point x="89" y="200" type="line"/>
      <point x="68" y="200" type="line"/>
      <point x="44" y="130" type="line"/>
      <point x="20" y="200" type="line"/>
      <point x="0" y="200" type="line"/>
      <point x="34" y="100" type="line"/>
      <point x="0" y="0" type="line"/>
      <point x="21" y="0" type="line"/>
      <point x="44" y="69" type="line"/>
    </contour>
  </outline>
</glyph>
<glyph name="Y" format="1">
  <advance width="100"/>
  <unicode hex="0059"/>
  <outline>
    <contour>
      <point x="60" y="0" type="line"/>
      <point x="40" y="0" type="line"/>
      <point x="40" y="89" type="line"/>
      <point x="60" y="89" type="line"/>
    </contour>
    <contour>
      <point x="60" y="89" type="line"/>
      <point x="23" y="200" type="line"/>
      <point x="2" y="200" type="line"/>
      <point x="40" y="89" type="line"/>
    </contour>
    <contour>
      <point x="60" y="89" type="line"/>
      <point x="97" y="200" type="line"/>
      <point x="77" y="200" type="line"/>
      <point x="40" y="89" type="line"/>
    </contour>
  </outline>
</glyph>
<glyph name="Z" format="1">
  <advance width="100"/>
  <unicode hex="005A"/>
  <outline>
    <contour>
      <point x="13" y="0" type="line"/>
      <point x="87" y="0" type="line"/>
      <point x="87" y="22" type="line"/>
      <point x="37" y="21" type="line"/>
      <point x="87" y="181" type="line"/>
      <point x="87" y="200" type="line"/>
      <point x="13" y="200" type="line"/>
      <point x="13" y="178" type="line"/>
      <point x="65" y="179" type="line"/>
      <point x="13" y="19" type="line"/>
    </contour>
  </outline>
</glyph>
<glyph name="Acircumflex" format="1">
  <advance width="100"/>
  <unicode hex="00C2"/>
  <outline>
    <contour>
      <point x="86" y="40" type="line"/>
      <point x="76" y="60" type="line"/>
      <point x="28" y="60" type="line"/>
      <point x="23" y="40" type="line"/>
    </contour>
    <contour>
      <point x="78" y="0" type="line"/>
      <point x="98" y="0" type="line"/>
      <point x="61" y="170" type="line"/>
      <point x="41" y="170" type="line"/>
      <point x="2" y="0" type="line"/>
      <point x="22" y="0" type="line"/>
      <point x="51" y="127" type="line"/>
    </contour>
    <component base="circumflex"/>
  </outline>
</glyph>
<glyph name="Eacute" format="1">
  <advance width="100"/>
  <unicode hex="00C9"/>
  <outline>
    <contour>
      <point x="15" y="0" type="line"/>
      <point x="85" y="0" type="line"/>
      <point x="85" y="20" type="line"/>
      <point x="35" y="20" type="line"/>
      <point x="35" y="74" type="line"/>
      <point x="70" y="74" type="line"/>
      <point x="70" y="94" type="line"/>
      <point x="35" y="94" type="line"/>
      <point x="35" y="150" type="line"/>
      <point x="85" y="150" type="line"/>
      <point x="85" y="170" type="line"/>
      <point x="15" y="170" type="line"/>
    </contour>
    <component base="acute"/>
  </outline>
</glyph>
<glyph name="Igrave" format="1">
  <advance width="100"/>
  <unicode hex="00CC"/>
  <outline>
    <contour>
      <point x="60" y="0" type="line"/>
      <point x="40" y="0" type="line"/>
      <point x="40" y="169" type="line"/>
      <point x="60" y="169" type="line"/>
    </contour>
    <contour>
      <point x="85" y="150" type="line"/>
      <point x="15" y="150" type="line"/>
      <point x="15" y="170" type="line"/>
      <point x="85" y="170" type="line"/>
    </contour>
    <contour>
      <point x="85" y="0" type="line"/>
      <point x="15" y="0" type="line"/>
      <point x="15" y="19" type="line"/>
      <point x="85" y="19" type="line"/>
    </contour>
    <component base="grave"/>
  </outline>
</glyph>
<glyph name="Ograve" format="1">
  <advance width="100"/>
  <unicode hex="00D2"/>
  <outline>
    <contour>
      <point x="51" y="-3" type="curve" smooth="yes"/>
      <point x="21.0" y="-3.0"/>
      <point x="11.0" y="9.49462365591"/>
      <point x="11" y="80" type="curve"/>
      <point x="11" y="151"/>
      <point x="21" y="163"/>
      <point x="51" y="163" type="curve" smooth="yes"/>
      <point x="79" y="163"/>
      <point x="89" y="151"/>
      <point x="89" y="80" type="curve"/>
      <point x="89.0" y="9.49462365591"/>
      <point x="79.0" y="-3.0"/>
    </contour>
    <contour>
      <point x="51" y="143" type="curve" smooth="yes"/>
      <point x="36" y="143"/>
      <point x="31" y="135"/>
      <point x="31" y="80" type="curve"/>
      <point x="31.0" y="24.7671232877"/>
      <point x="36.0" y="17.0"/>
      <point x="51" y="17" type="curve" smooth="yes"/>
      <point x="65.0" y="17.0"/>
      <point x="69.0" y="25.6301369863"/>
      <point x="69" y="80" type="curve"/>
      <point x="69" y="134"/>
      <point x="65" y="143"/>
    </contour>
    <component base="grave"/>
  </outline>
</glyph>
<glyph name="Ocircumflex" format="1">
  <advance width="100"/>
  <unicode hex="00D4"/>
  <outline>
    <contour>
      <point x="51" y="-3" type="curve" smooth="yes"/>
      <point x="21" y="-3"/>
      <point x="11" y="9"/>
      <point x="11" y="80" type="curve"/>
      <point x="11" y="151"/>
      <point x="21" y="163"/>
      <point x="51" y="163" type="curve" smooth="yes"/>
      <point x="79" y="163"/>
      <point x="89" y="151"/>
      <point x="89" y="80" type="curve"/>
      <point x="89" y="9"/>
      <point x="79" y="-3"/>
    </contour>
    <contour>
      <point x="51" y="143" type="curve" smooth="yes"/>
      <point x="36" y="143"/>
      <point x="31" y="135"/>
      <point x="31" y="80" type="curve"/>
      <point x="31" y="25"/>
      <point x="36" y="17"/>
      <point x="51" y="17" type="curve" smooth="yes"/>
      <point x="65" y="17"/>
      <point x="69" y="26"/>
      <point x="69" y="80" type="curve"/>
      <point x="69" y="134"/>
      <point x="65" y="143"/>
    </contour>
    <component base="circumflex"/>
  </outline>
</glyph>
<glyph name="circumflex" format="1">
  <advance width="100"/>
  <unicode hex="02C6"/>
  <outline>
    <contour>
      <point x="36" y="180" type="line"/>
      <point x="65" y="202" type="line"/>
      <point x="35" y="202" type="line"/>
      <point x="12" y="180" type="line"/>
      <point x="36" y="180" type="line"/>
      <point x="14" y="180" type="line"/>
    </contour>
    <contour>
      <point x="63" y="180" type="line"/>
      <point x="87" y="180" type="line"/>
      <point x="63" y="180" type="line"/>
      <point x="85" y="180" type="line"/>
      <point x="63" y="202" type="line"/>
      <point x="37" y="202" type="line"/>
    </contour>
  </outline>
</glyph>
